<svg width="24" height="24" viewBox="0 0 24 24" fill="none" xmlns="http://www.w3.org/2000/svg">
  <path d="M17.0476 12.9167C17.0358 10.8525 18.4005 9.6893 18.4814 9.63676C17.5335 8.2749 16.0929 8.08015 15.5779 8.05822C14.2995 7.9255 13.0574 8.82189 12.4046 8.82189C11.7297 8.82189 10.7137 8.0801 9.63978 8.09767C8.24814 8.11523 6.95584 8.89381 6.22872 10.1255C4.73004 12.636 5.84774 16.3224 7.27584 18.3481C7.99411 19.3283 8.83825 20.4421 9.94124 20.4035C10.9998 20.3605 11.396 19.6986 12.6807 19.6986C13.9477 19.6986 14.3131 20.4035 15.4202 20.38C16.5665 20.3605 17.2769 19.3634 17.9751 18.371C18.7898 17.2399 19.1155 16.1307 19.1309 16.0832C19.0982 16.0701 17.0626 15.3213 17.0476 12.9167Z" fill="white"/>
  <path d="M15.1609 6.7456C15.7441 6.0332 16.1307 5.06734 16.0192 4.08301C15.1872 4.12256 14.1394 4.65901 13.534 5.34501C13.0024 5.95501 12.5343 6.9648 12.666 7.92267C13.6121 7.99667 14.5563 7.446 15.1609 6.7456Z" fill="white"/>
</svg> 