<svg width="24" height="24" viewBox="0 0 24 24" fill="none" xmlns="http://www.w3.org/2000/svg">
  <path d="M22.56 12.25C22.56 11.47 22.49 10.72 22.36 10H12V14.255H17.92C17.655 15.63 16.89 16.795 15.725 17.575V20.335H19.28C21.36 18.42 22.56 15.6 22.56 12.25Z" fill="#4285F4"/>
  <path d="M12 23C14.97 23 17.43 22.015 19.28 20.335L15.725 17.575C14.755 18.235 13.53 18.625 12 18.625C9.13 18.625 6.72 16.73 5.835 14.145H2.17V16.995C4.01 20.595 7.7 23 12 23Z" fill="#34A853"/>
  <path d="M5.835 14.145C5.625 13.485 5.5 12.775 5.5 12C5.5 11.225 5.625 10.515 5.835 9.855V7.005H2.17C1.4 8.565 1 10.2 1 12C1 13.8 1.4 15.435 2.17 16.995L5.835 14.145Z" fill="#FBBC05"/>
  <path d="M12 5.375C13.615 5.375 15.065 5.93 16.205 7.01L19.36 3.855C17.43 2.09 14.97 1 12 1C7.7 1 4.01 3.405 2.17 7.005L5.835 9.855C6.72 7.27 9.13 5.375 12 5.375Z" fill="#EA4335"/>
</svg> 